<svg id="aeroplane" xmlns="http://www.w3.org/2000/svg" width="83.154" height="68.801" viewBox="0 0 83.154 68.801">
  <g id="Grupo_51" data-name="Grupo 51" transform="translate(27.729 0)">
    <g id="Grupo_50" data-name="Grupo 50">
      <path id="Trazado_9319" data-name="Trazado 9319" d="M178.012,32.827a4.946,4.946,0,0,0-3.2-.687,12.76,12.76,0,0,0-5.721,2.4q-2.231,1.716-5.149,4.119l-2.746,2.4c-.572.572-1.144,1.03-1.716,1.6a1.992,1.992,0,0,1-1.716.572c-.343-.114-.8-.229-1.259-.343l-21.4-8.01c-.687-.229-1.373-.458-2.174-.687a3.6,3.6,0,0,0-3.433.572,10.225,10.225,0,0,0-2.975,3.318,2.706,2.706,0,0,0,.572,3.662,8.345,8.345,0,0,0,1.259,1.03c3.891,2.746,7.9,5.378,11.786,8.124a18.177,18.177,0,0,1,3.891,3.2c.229.343.458.572.687.915l-7.438,7.095c-.8.8-1.6,1.488-2.4,2.289-.114,0-.229-.114-.343-.114l-1.259-.572c-1.03-.458-1.945-1.03-2.975-1.488a3.3,3.3,0,0,0-3.662.458,21.967,21.967,0,0,0-1.716,1.6,2.39,2.39,0,0,0-.229,3.433,4.977,4.977,0,0,0,.687.8l2.174,2.746c2.517,3.318,5.149,6.637,7.781,9.841a3.763,3.763,0,0,0,3.662,1.488,4.292,4.292,0,0,0,2.861-2.746,5.325,5.325,0,0,0,.114-3.776l-.229-1.03-.687-2.746c3.09-2.4,6.179-4.692,9.154-7.095l1.488-1.144.343.572a17.673,17.673,0,0,1,1.945,3.891l5.264,13.5c.343.8.572,1.6.915,2.289a2.884,2.884,0,0,0,2.632,1.945,3.047,3.047,0,0,0,1.373-.343,2.3,2.3,0,0,0,.915-.458,6.036,6.036,0,0,0,3.433-3.891,9.474,9.474,0,0,0,.114-3.547L165.883,58c-.229-1.6-.458-3.318-.687-4.92a1.632,1.632,0,0,1,.687-1.716l2.4-2.06c1.945-1.6,3.776-3.2,5.721-4.806a18.586,18.586,0,0,0,3.547-4.005,12.016,12.016,0,0,0,1.716-3.662A3.422,3.422,0,0,0,178.012,32.827Zm-.915,3.547a12.881,12.881,0,0,1-1.488,3.09,13.952,13.952,0,0,1-3.09,3.433c-1.831,1.6-3.776,3.2-5.721,4.806l-2.289,1.945a3.911,3.911,0,0,0-1.6,3.891c.229,1.6.458,3.2.687,4.92l2.746,20.025a6.345,6.345,0,0,1-.114,2.632,4.046,4.046,0,0,1-2.174,2.4,5.581,5.581,0,0,1-.8.343c-.687.229-.915.114-1.144-.458-.343-.687-.572-1.488-.915-2.289l-5.035-13.5a29.561,29.561,0,0,0-2.174-4.234l-.687-1.144-1.03-1.488-3.547,2.632c-3.2,2.4-6.408,4.92-9.5,7.323a1.439,1.439,0,0,0-.572,1.716c.229,1.03.572,2.06.8,3.09l.229,1.03a3.41,3.41,0,0,1-.114,2.4,2.42,2.42,0,0,1-1.6,1.373,1.156,1.156,0,0,1-.572-.229,1.379,1.379,0,0,1-.572-.572c-2.632-3.318-5.149-6.522-7.667-9.841l-2.174-2.746a4.843,4.843,0,0,1-.572-.8.354.354,0,0,1-.114-.229l.229-.229a16.25,16.25,0,0,1,1.488-1.373,1.026,1.026,0,0,1,1.259-.114c1.03.458,1.945.915,2.975,1.488l1.259.572.687.343a1.575,1.575,0,0,0,1.831-.229c.915-.915,1.831-1.716,2.746-2.632l7.9-7.438.915-.915-.572-.8c-.114-.229-.229-.343-.343-.572a11.987,11.987,0,0,0-.915-1.259,18.965,18.965,0,0,0-4.348-3.662c-3.891-2.632-7.9-5.378-11.786-8.124a6.289,6.289,0,0,1-1.03-.8c-.343-.343-.343-.458-.114-.687a9.487,9.487,0,0,1,2.517-2.746c.229-.229.572-.343,1.373-.114a21.6,21.6,0,0,1,2.06.687l21.4,8.01a11.739,11.739,0,0,0,1.6.458,4.128,4.128,0,0,0,3.547-1.03c.572-.572,1.144-1.03,1.716-1.6l2.746-2.4c1.945-1.6,3.547-2.975,5.035-4.119a10.031,10.031,0,0,1,4.692-1.945,2.182,2.182,0,0,1,1.488.229C177.1,35,177.326,35.688,177.1,36.374Z" transform="translate(-124.068 -32.112)" fill="#a2a2a2"/>
    </g>
  </g>
  <g id="Grupo_53" data-name="Grupo 53" transform="translate(0 43.541)">
    <g id="Grupo_52" data-name="Grupo 52">
      <path id="Trazado_9320" data-name="Trazado 9320" d="M30.409,227.359a1.231,1.231,0,0,0-1.6-.229L.428,248.758a1.231,1.231,0,0,0-.229,1.6,1.041,1.041,0,0,0,.915.458,1.627,1.627,0,0,0,.687-.229L30.18,228.961A1.1,1.1,0,0,0,30.409,227.359Z" transform="translate(0 -226.931)" fill="#a2a2a2"/>
    </g>
  </g>
  <g id="Grupo_55" data-name="Grupo 55" transform="translate(14.761 48.919)">
    <g id="Grupo_54" data-name="Grupo 54">
      <path id="Trazado_9321" data-name="Trazado 9321" d="M85.472,251.423a1.387,1.387,0,0,0-1.716-.229L66.476,264.468a1.231,1.231,0,0,0-.229,1.6,1.041,1.041,0,0,0,.915.458,1.627,1.627,0,0,0,.687-.229l17.393-13.274A1.231,1.231,0,0,0,85.472,251.423Z" transform="translate(-66.048 -250.995)" fill="#a2a2a2"/>
    </g>
  </g>
  <g id="Grupo_57" data-name="Grupo 57" transform="translate(8.925 64.367)">
    <g id="Grupo_56" data-name="Grupo 56">
      <path id="Trazado_9322" data-name="Trazado 9322" d="M44.827,320.543a1.231,1.231,0,0,0-1.6-.229l-2.861,2.174a1.231,1.231,0,0,0-.229,1.6,1.041,1.041,0,0,0,.915.458,1.626,1.626,0,0,0,.687-.229l2.861-2.174A1.231,1.231,0,0,0,44.827,320.543Z" transform="translate(-39.936 -320.115)" fill="#a2a2a2"/>
    </g>
  </g>
  <g id="Grupo_59" data-name="Grupo 59" transform="translate(5.149 51.551)">
    <g id="Grupo_58" data-name="Grupo 58">
      <path id="Trazado_9323" data-name="Trazado 9323" d="M27.931,263.2a1.231,1.231,0,0,0-1.6-.229l-2.861,2.174a1.231,1.231,0,0,0-.229,1.6,1.041,1.041,0,0,0,.915.458,1.627,1.627,0,0,0,.687-.229L27.7,264.8A1.231,1.231,0,0,0,27.931,263.2Z" transform="translate(-23.04 -262.771)" fill="#a2a2a2"/>
    </g>
  </g>
  <g id="Grupo_61" data-name="Grupo 61" transform="translate(10.985 39.078)">
    <g id="Grupo_60" data-name="Grupo 60">
      <path id="Trazado_9324" data-name="Trazado 9324" d="M64.8,207.391a1.231,1.231,0,0,0-1.6-.229l-13.617,10.3a1.231,1.231,0,0,0-.229,1.6,1.413,1.413,0,0,0,.915.458,1.627,1.627,0,0,0,.687-.229l13.617-10.3A1.231,1.231,0,0,0,64.8,207.391Z" transform="translate(-49.152 -206.963)" fill="#a2a2a2"/>
    </g>
  </g>
</svg>
