<svg id="building" xmlns="http://www.w3.org/2000/svg" width="65.426" height="65.426" viewBox="0 0 65.426 65.426">
  <g id="Group_67" data-name="Group 67" transform="translate(0)">
    <g id="Group_66" data-name="Group 66">
      <path id="Path_9327" data-name="Path 9327" d="M151.089,477.867H120.557a1.091,1.091,0,0,0-1.09,1.09v2.181a1.09,1.09,0,1,0,2.181,0v-1.09h29.442a1.09,1.09,0,0,0,0-2.181Z" transform="translate(-104.201 -416.803)" fill="#a2a2a2"/>
      <path id="Path_9328" data-name="Path 9328" d="M187.733,161.233a1.091,1.091,0,0,0,1.09,1.09h4.362a1.091,1.091,0,0,0,1.09-1.09V154.69a1.091,1.091,0,0,0-1.09-1.09h-4.362a1.091,1.091,0,0,0-1.09,1.09v6.543Zm2.181-5.452h2.181v4.362h-2.181Z" transform="translate(-163.744 -133.972)" fill="#a2a2a2"/>
      <path id="Path_9329" data-name="Path 9329" d="M14.176,102.4H1.09A1.091,1.091,0,0,0,0,103.49V125.3a1.09,1.09,0,0,0,2.181,0V104.581H14.176a1.09,1.09,0,0,0,0-2.181Z" transform="translate(0 -89.315)" fill="#a2a2a2"/>
      <path id="Path_9330" data-name="Path 9330" d="M409.6,366.033a1.091,1.091,0,0,0,1.09,1.09h4.362a1.091,1.091,0,0,0,1.09-1.09V359.49a1.091,1.091,0,0,0-1.09-1.09H410.69a1.091,1.091,0,0,0-1.09,1.09Zm2.181-5.452h2.181v4.362h-2.181Z" transform="translate(-357.259 -312.602)" fill="#a2a2a2"/>
      <path id="Path_9331" data-name="Path 9331" d="M5.452,307.2C.062,307.2,0,321.234,0,321.376a5.462,5.462,0,0,0,4.362,5.342v5.562a1.09,1.09,0,0,0,2.181,0v-5.562a5.462,5.462,0,0,0,4.362-5.342C10.9,321.234,10.842,307.2,5.452,307.2Zm0,17.447a3.275,3.275,0,0,1-3.271-3.271c0-5.433,1.459-11.995,3.271-11.995s3.271,6.562,3.271,11.995A3.275,3.275,0,0,1,5.452,324.647Z" transform="translate(0 -267.945)" fill="#a2a2a2"/>
      <path id="Path_9332" data-name="Path 9332" d="M56.652,256H52.29a1.091,1.091,0,0,0-1.09,1.09v2.181a1.09,1.09,0,1,0,2.181,0v-1.09h2.181v5.452a1.09,1.09,0,0,0,2.181,0v-6.543A1.091,1.091,0,0,0,56.652,256Z" transform="translate(-44.657 -223.287)" fill="#a2a2a2"/>
      <path id="Path_9333" data-name="Path 9333" d="M410.69,162.324h4.362a1.091,1.091,0,0,0,1.09-1.09v-6.543a1.091,1.091,0,0,0-1.09-1.09H410.69a1.091,1.091,0,0,0-1.09,1.09v6.543A1.091,1.091,0,0,0,410.69,162.324Zm1.091-6.543h2.181v4.362h-2.181Z" transform="translate(-357.259 -133.973)" fill="#a2a2a2"/>
      <path id="Path_9334" data-name="Path 9334" d="M56.652,153.6H52.29a1.091,1.091,0,0,0-1.09,1.09v6.543a1.091,1.091,0,0,0,1.09,1.09h4.362a1.091,1.091,0,0,0,1.09-1.09V154.69A1.091,1.091,0,0,0,56.652,153.6Zm-1.091,6.543H53.381v-4.362h2.181v4.362Z" transform="translate(-44.657 -133.972)" fill="#a2a2a2"/>
      <path id="Path_9335" data-name="Path 9335" d="M273.067,161.233a1.091,1.091,0,0,0,1.09,1.09h4.362a1.091,1.091,0,0,0,1.09-1.09V154.69a1.091,1.091,0,0,0-1.09-1.09h-4.362a1.091,1.091,0,0,0-1.09,1.09Zm2.181-5.452h2.181v4.362h-2.181Z" transform="translate(-238.173 -133.972)" fill="#a2a2a2"/>
      <path id="Path_9336" data-name="Path 9336" d="M406.71,102.4H393.624a1.09,1.09,0,1,0,0,2.181h11.995V148.4a3.116,3.116,0,0,0-1.651-.152,4.355,4.355,0,0,0-7.6,0,3.206,3.206,0,0,0-.56-.049,3.271,3.271,0,0,0,0,6.543h8.723a3.275,3.275,0,0,0,3.271-3.271V103.49A1.091,1.091,0,0,0,406.71,102.4Zm-2.181,50.16h-8.723a1.09,1.09,0,1,1,0-2.181,1.077,1.077,0,0,1,.591.178,1.09,1.09,0,0,0,1.653-.671,2.172,2.172,0,0,1,4.235,0,1.09,1.09,0,0,0,1.653.671,1.112,1.112,0,0,1,1.681.913A1.092,1.092,0,0,1,404.529,152.56Z" transform="translate(-342.374 -89.315)" fill="#a2a2a2"/>
      <path id="Path_9337" data-name="Path 9337" d="M274.157,59.924h4.362a1.091,1.091,0,0,0,1.09-1.09V52.291a1.091,1.091,0,0,0-1.09-1.09h-4.362a1.091,1.091,0,0,0-1.09,1.09v6.543A1.091,1.091,0,0,0,274.157,59.924Zm1.09-6.543h2.181v4.362h-2.181Z" transform="translate(-238.173 -44.658)" fill="#a2a2a2"/>
      <path id="Path_9338" data-name="Path 9338" d="M273.067,263.633a1.091,1.091,0,0,0,1.09,1.09h4.362a1.091,1.091,0,0,0,1.09-1.09V257.09a1.091,1.091,0,0,0-1.09-1.09h-4.362a1.091,1.091,0,0,0-1.09,1.09Zm2.181-5.452h2.181v4.362h-2.181Z" transform="translate(-238.173 -223.287)" fill="#a2a2a2"/>
      <path id="Path_9339" data-name="Path 9339" d="M188.824,59.924h4.362a1.091,1.091,0,0,0,1.09-1.09V52.291a1.091,1.091,0,0,0-1.09-1.09h-4.362a1.091,1.091,0,0,0-1.09,1.09v6.543A1.091,1.091,0,0,0,188.824,59.924Zm1.09-6.543H192.1v4.362h-2.181Z" transform="translate(-163.744 -44.658)" fill="#a2a2a2"/>
      <path id="Path_9340" data-name="Path 9340" d="M247.782,410.009a1.091,1.091,0,1,0,1.548,0A1.147,1.147,0,0,0,247.782,410.009Z" transform="translate(-215.844 -357.352)" fill="#a2a2a2"/>
      <path id="Path_9341" data-name="Path 9341" d="M187.733,263.633a1.091,1.091,0,0,0,1.09,1.09h4.362a1.091,1.091,0,0,0,1.09-1.09V257.09a1.091,1.091,0,0,0-1.09-1.09h-4.362a1.091,1.091,0,0,0-1.09,1.09v6.543Zm2.181-5.452h2.181v4.362h-2.181Z" transform="translate(-163.744 -223.287)" fill="#a2a2a2"/>
      <path id="Path_9342" data-name="Path 9342" d="M170.667,359.49a1.091,1.091,0,0,0,1.09,1.09h3.271v9.814a1.09,1.09,0,1,0,2.181,0v-9.814h8.723v9.814a1.09,1.09,0,0,0,2.181,0v-9.814h3.271a1.09,1.09,0,1,0,0-2.181H171.757A1.091,1.091,0,0,0,170.667,359.49Z" transform="translate(-148.858 -312.602)" fill="#a2a2a2"/>
      <path id="Path_9343" data-name="Path 9343" d="M409.6,263.633a1.091,1.091,0,0,0,1.09,1.09h4.362a1.091,1.091,0,0,0,1.09-1.09V257.09a1.091,1.091,0,0,0-1.09-1.09H410.69a1.091,1.091,0,0,0-1.09,1.09Zm2.181-5.452h2.181v4.362h-2.181Z" transform="translate(-357.259 -223.287)" fill="#a2a2a2"/>
      <path id="Path_9344" data-name="Path 9344" d="M165.975,0H137.624a1.091,1.091,0,0,0-1.09,1.09v56.7a1.09,1.09,0,0,0,2.181,0V2.181h26.17V57.793a1.09,1.09,0,1,0,2.181,0V1.09A1.091,1.091,0,0,0,165.975,0Z" transform="translate(-119.087)" fill="#a2a2a2"/>
    </g>
  </g>
</svg>
