<svg id="event" xmlns="http://www.w3.org/2000/svg" width="73.085" height="61.385" viewBox="0 0 73.085 61.385">
  <g id="Grupo_69" data-name="Grupo 69" transform="translate(21.998 23.847)">
    <g id="Grupo_68" data-name="Grupo 68" transform="translate(0 0)">
      <path id="Trazado_9345" data-name="Trazado 9345" d="M158.472,208.046a4.367,4.367,0,1,0,4.367,4.367A4.372,4.372,0,0,0,158.472,208.046Zm0,6.593a2.226,2.226,0,1,1,2.226-2.226A2.228,2.228,0,0,1,158.472,214.639Z" transform="translate(-154.105 -208.046)" fill="#a2a2a2"/>
    </g>
  </g>
  <g id="Grupo_71" data-name="Grupo 71" transform="translate(33.383 23.847)">
    <g id="Grupo_70" data-name="Grupo 70" transform="translate(0 0)">
      <path id="Trazado_9346" data-name="Trazado 9346" d="M238.23,208.046a4.367,4.367,0,1,0,4.367,4.367A4.372,4.372,0,0,0,238.23,208.046Zm0,6.593a2.226,2.226,0,1,1,2.226-2.226A2.228,2.228,0,0,1,238.23,214.639Z" transform="translate(-233.863 -208.046)" fill="#a2a2a2"/>
    </g>
  </g>
  <g id="Grupo_73" data-name="Grupo 73" transform="translate(44.768 23.847)">
    <g id="Grupo_72" data-name="Grupo 72" transform="translate(0 0)">
      <path id="Trazado_9347" data-name="Trazado 9347" d="M317.99,208.046a4.367,4.367,0,1,0,4.367,4.367A4.372,4.372,0,0,0,317.99,208.046Zm0,6.593a2.226,2.226,0,1,1,2.226-2.226A2.228,2.228,0,0,1,317.99,214.639Z" transform="translate(-313.623 -208.046)" fill="#a2a2a2"/>
    </g>
  </g>
  <g id="Grupo_75" data-name="Grupo 75" transform="translate(21.998 34.5)">
    <g id="Grupo_74" data-name="Grupo 74" transform="translate(0 0)">
      <path id="Trazado_9348" data-name="Trazado 9348" d="M158.472,282.671a4.367,4.367,0,1,0,4.367,4.367A4.372,4.372,0,0,0,158.472,282.671Zm0,6.593a2.226,2.226,0,1,1,2.226-2.226A2.228,2.228,0,0,1,158.472,289.264Z" transform="translate(-154.105 -282.671)" fill="#a2a2a2"/>
    </g>
  </g>
  <g id="Grupo_77" data-name="Grupo 77" transform="translate(44.768 34.5)">
    <g id="Grupo_76" data-name="Grupo 76" transform="translate(0 0)">
      <path id="Trazado_9349" data-name="Trazado 9349" d="M317.99,282.671a4.367,4.367,0,1,0,4.367,4.367A4.372,4.372,0,0,0,317.99,282.671Zm0,6.593a2.226,2.226,0,1,1,2.226-2.226A2.228,2.228,0,0,1,317.99,289.264Z" transform="translate(-313.623 -282.671)" fill="#a2a2a2"/>
    </g>
  </g>
  <g id="Grupo_79" data-name="Grupo 79" transform="translate(33.383 34.5)">
    <g id="Grupo_78" data-name="Grupo 78" transform="translate(0 0)">
      <path id="Trazado_9350" data-name="Trazado 9350" d="M238.23,282.671a4.367,4.367,0,1,0,4.367,4.367A4.372,4.372,0,0,0,238.23,282.671Zm0,6.593a2.226,2.226,0,1,1,2.226-2.226A2.228,2.228,0,0,1,238.23,289.264Z" transform="translate(-233.863 -282.671)" fill="#a2a2a2"/>
    </g>
  </g>
  <g id="Grupo_81" data-name="Grupo 81" transform="translate(33.383 45.152)">
    <g id="Grupo_80" data-name="Grupo 80">
      <path id="Trazado_9351" data-name="Trazado 9351" d="M238.231,357.3a4.367,4.367,0,1,0,4.367,4.367A4.372,4.372,0,0,0,238.231,357.3Zm0,6.593a2.226,2.226,0,1,1,2.226-2.226A2.228,2.228,0,0,1,238.231,363.889Z" transform="translate(-233.864 -357.296)" fill="#a2a2a2"/>
    </g>
  </g>
  <g id="Grupo_83" data-name="Grupo 83" transform="translate(21.998 45.152)">
    <g id="Grupo_82" data-name="Grupo 82">
      <path id="Trazado_9352" data-name="Trazado 9352" d="M158.472,357.3a4.367,4.367,0,1,0,4.367,4.367A4.372,4.372,0,0,0,158.472,357.3Zm0,6.593a2.226,2.226,0,1,1,2.226-2.226A2.228,2.228,0,0,1,158.472,363.889Z" transform="translate(-154.105 -357.296)" fill="#a2a2a2"/>
    </g>
  </g>
  <g id="Grupo_85" data-name="Grupo 85" transform="translate(11.578 24.813)">
    <g id="Grupo_84" data-name="Grupo 84">
      <path id="Trazado_9353" data-name="Trazado 9353" d="M86.026,218.212l1.574-1.574a1.071,1.071,0,0,0-1.514-1.514L84.511,216.7l-1.574-1.574a1.071,1.071,0,0,0-1.514,1.514L83,218.212l-1.574,1.574a1.071,1.071,0,1,0,1.514,1.514l1.574-1.574,1.574,1.574a1.071,1.071,0,0,0,1.514-1.514Z" transform="translate(-81.11 -214.811)" fill="#a2a2a2"/>
    </g>
  </g>
  <g id="Grupo_87" data-name="Grupo 87" transform="translate(11.578 35.465)">
    <g id="Grupo_86" data-name="Grupo 86">
      <path id="Trazado_9354" data-name="Trazado 9354" d="M86.026,292.837l1.574-1.574a1.071,1.071,0,1,0-1.514-1.514l-1.574,1.574-1.574-1.574a1.071,1.071,0,1,0-1.514,1.514L83,292.837l-1.574,1.574a1.071,1.071,0,1,0,1.514,1.514l1.574-1.574,1.574,1.574a1.071,1.071,0,1,0,1.514-1.514Z" transform="translate(-81.11 -289.436)" fill="#a2a2a2"/>
    </g>
  </g>
  <g id="Grupo_89" data-name="Grupo 89" transform="translate(11.578 46.117)">
    <g id="Grupo_88" data-name="Grupo 88">
      <path id="Trazado_9355" data-name="Trazado 9355" d="M87.6,369.034l-1.574-1.574,1.574-1.574a1.071,1.071,0,0,0-1.515-1.514l-1.574,1.574-1.574-1.574a1.071,1.071,0,1,0-1.514,1.514L83,367.46l-1.574,1.574a1.071,1.071,0,0,0,1.514,1.514l1.574-1.574,1.574,1.574a1.071,1.071,0,0,0,1.515-1.514Z" transform="translate(-81.108 -364.059)" fill="#a2a2a2"/>
    </g>
  </g>
  <g id="Grupo_91" data-name="Grupo 91" transform="translate(0 0)">
    <g id="Grupo_90" data-name="Grupo 90">
      <path id="Trazado_9356" data-name="Trazado 9356" d="M73.024,95.26,70.1,79.894a1.071,1.071,0,1,0-2.1.4L70.92,95.66a1.479,1.479,0,0,1-1.552,1.672H53.525L63.8,87.056a1.083,1.083,0,0,0,.313-.757V59.846L67.051,75.3a1.071,1.071,0,1,0,2.1-.4L64.107,48.339A2.983,2.983,0,0,0,61.133,45.5H51.75V42.053a1.071,1.071,0,1,0-2.141,0V45.5h-7.17V42.053a1.071,1.071,0,1,0-2.141,0V45.5h-7.17V42.053a1.071,1.071,0,1,0-2.141,0V45.5h-7.17V42.053a1.071,1.071,0,1,0-2.141,0V45.5h-7.17V42.053a1.071,1.071,0,1,0-2.141,0V45.5H2.982A2.985,2.985,0,0,0,0,48.477V99.386a2.985,2.985,0,0,0,2.982,2.981H29.559a1.071,1.071,0,0,0,0-2.141H2.982a.841.841,0,0,1-.84-.84V59.4H61.973V85.227H49.956a2.985,2.985,0,0,0-2.981,2.982v12.017H34.555a1.071,1.071,0,1,0,0,2.141h13.49a1.076,1.076,0,0,0,.757-.313l2.581-2.581H69.368A3.615,3.615,0,0,0,73.024,95.26ZM2.141,57.255V48.477a.841.841,0,0,1,.84-.84h9.383v4.809a1.071,1.071,0,0,0,2.141,0V47.636h7.17v4.809a1.071,1.071,0,0,0,2.141,0V47.636h7.17v4.809a1.071,1.071,0,0,0,2.141,0V47.636H40.3v4.809a1.071,1.071,0,0,0,2.141,0V47.636h7.17v4.809a1.071,1.071,0,0,0,2.141,0V47.636h9.383a.841.841,0,0,1,.84.84v8.778H2.141ZM49.116,98.712v-10.5a.841.841,0,0,1,.84-.84h10.5Z" transform="translate(0 -40.982)" fill="#a2a2a2"/>
    </g>
  </g>
</svg>
