<svg xmlns="http://www.w3.org/2000/svg" width="79.522" height="85.176" viewBox="0 0 79.522 85.176">
  <g id="Grupo_825" data-name="Grupo 825" transform="translate(-140 -2718.325)">
    <g id="idea" transform="translate(140 2718.325)">
      <g id="Grupo_33" data-name="Grupo 33" transform="translate(38.544)">
        <g id="Grupo_32" data-name="Grupo 32" transform="translate(0)">
          <path id="Trazado_9310" data-name="Trazado 9310" d="M249.9,0a1.217,1.217,0,0,0-1.217,1.217v6.4a1.217,1.217,0,0,0,2.433,0v-6.4A1.217,1.217,0,0,0,249.9,0Z" transform="translate(-248.687)" fill="#a2a2a2"/>
        </g>
      </g>
      <g id="Grupo_35" data-name="Grupo 35" transform="translate(70.692 38.544)">
        <g id="Grupo_34" data-name="Grupo 34">
          <path id="Trazado_9311" data-name="Trazado 9311" d="M449.54,231.692h-6.4a1.217,1.217,0,0,0,0,2.433h6.4a1.217,1.217,0,1,0,0-2.433Z" transform="translate(-441.927 -231.692)" fill="#a2a2a2"/>
        </g>
      </g>
      <g id="Grupo_37" data-name="Grupo 37" transform="translate(0 38.544)">
        <g id="Grupo_36" data-name="Grupo 36">
          <path id="Trazado_9312" data-name="Trazado 9312" d="M24.608,231.692h-6.4a1.217,1.217,0,0,0,0,2.433h6.4a1.217,1.217,0,0,0,0-2.433Z" transform="translate(-16.995 -231.692)" fill="#a2a2a2"/>
        </g>
      </g>
      <g id="Grupo_39" data-name="Grupo 39" transform="translate(61.276 61.276)">
        <g id="Grupo_38" data-name="Grupo 38">
          <path id="Trazado_9313" data-name="Trazado 9313" d="M391.929,373.213l-4.523-4.523a1.216,1.216,0,1,0-1.72,1.72l4.523,4.523a1.216,1.216,0,1,0,1.72-1.72Z" transform="translate(-385.329 -368.334)" fill="#a2a2a2"/>
        </g>
      </g>
      <g id="Grupo_41" data-name="Grupo 41" transform="translate(11.289 11.289)">
        <g id="Grupo_40" data-name="Grupo 40" transform="translate(0)">
          <path id="Trazado_9314" data-name="Trazado 9314" d="M91.457,72.74l-4.523-4.523a1.217,1.217,0,0,0-1.72,1.72l4.523,4.523a1.217,1.217,0,0,0,1.72-1.72Z" transform="translate(-84.857 -67.86)" fill="#a2a2a2"/>
        </g>
      </g>
      <g id="Grupo_43" data-name="Grupo 43" transform="translate(61.276 11.289)">
        <g id="Grupo_42" data-name="Grupo 42">
          <path id="Trazado_9315" data-name="Trazado 9315" d="M391.928,68.218a1.217,1.217,0,0,0-1.72,0l-4.523,4.523a1.216,1.216,0,0,0,1.72,1.72l4.523-4.523A1.216,1.216,0,0,0,391.928,68.218Z" transform="translate(-385.328 -67.861)" fill="#a2a2a2"/>
        </g>
      </g>
      <g id="Grupo_45" data-name="Grupo 45" transform="translate(11.289 61.276)">
        <g id="Grupo_44" data-name="Grupo 44" transform="translate(0)">
          <path id="Trazado_9316" data-name="Trazado 9316" d="M91.456,368.69a1.217,1.217,0,0,0-1.72,0l-4.523,4.523a1.217,1.217,0,0,0,1.72,1.721l4.523-4.523A1.216,1.216,0,0,0,91.456,368.69Z" transform="translate(-84.856 -368.333)" fill="#a2a2a2"/>
        </g>
      </g>
      <g id="Grupo_47" data-name="Grupo 47" transform="translate(16.991 14.869)">
        <g id="Grupo_46" data-name="Grupo 46" transform="translate(0)">
          <path id="Trazado_9317" data-name="Trazado 9317" d="M164.256,107.808a1.217,1.217,0,0,0-2.389.461,20.506,20.506,0,0,1,.369,3.879,20.153,20.153,0,0,1-4.11,12.259,33.569,33.569,0,0,0-6.852,18.3H132.526a33.683,33.683,0,0,0-.847-5.81,33.005,33.005,0,0,0-1.055-3.551,32.292,32.292,0,0,0-1.716-3.93,31.5,31.5,0,0,0-3.076-4.806,20.338,20.338,0,1,1,33.363-23.171,1.216,1.216,0,0,0,2.067-1.283A22.755,22.755,0,0,0,141.9,89.378h-.161a22.77,22.77,0,0,0-17.825,36.728,29.051,29.051,0,0,1,2.838,4.434,29.868,29.868,0,0,1,1.586,3.633,30.541,30.541,0,0,1,.977,3.289,31.265,31.265,0,0,1,.8,5.725,2.051,2.051,0,0,0,2.048,1.957V154.4a5.29,5.29,0,0,0,5.284,5.284h8.906a5.29,5.29,0,0,0,5.284-5.284v-9.257a2.053,2.053,0,0,0,2.048-1.956,31.127,31.127,0,0,1,6.381-17.313,22.566,22.566,0,0,0,4.6-13.728A22.961,22.961,0,0,0,164.256,107.808Zm-17.9,49.444h-8.906a2.853,2.853,0,0,1-2.822-2.462h14.549A2.853,2.853,0,0,1,146.353,157.252Zm2.851-10.283h-4.926a1.217,1.217,0,0,0,0,2.433H149.2v2.955H134.6V149.4h2.059a1.217,1.217,0,0,0,0-2.433H134.6v-1.826H149.2Z" transform="translate(-119.13 -89.378)" fill="#a2a2a2"/>
        </g>
      </g>
      <g id="Grupo_49" data-name="Grupo 49" transform="translate(32.441 28.848)">
        <g id="Grupo_48" data-name="Grupo 48" transform="translate(0)">
          <path id="Trazado_9318" data-name="Trazado 9318" d="M220.68,184.9l-.109-.04V177.8l.178.013a7.357,7.357,0,0,1,3.023.885,2.447,2.447,0,0,0,.967.349c.854,0,1.3-1.129,1.3-1.734,0-.824-.965-1.342-1.774-1.632a12.223,12.223,0,0,0-3.533-.6l-.162,0v-1.062c0-.3-.421-.6-.834-.6-.495,0-.8.312-.8.6v1.117l-.149.016c-1.86.2-6.187,1.176-6.187,6.037,0,4.165,3.307,5.342,6.225,6.379l.111.039v8.134l-.179-.014a6.774,6.774,0,0,1-4.206-1.892c-.466-.4-.833-.709-1.183-.709-.7,0-1.367.977-1.367,1.734,0,1.492,2.638,3.7,6.772,3.768l.164,0v1.2c0,.289.306.6.8.6.413,0,.834-.3.834-.6v-1.279l.143-.02c3.766-.523,5.926-2.967,5.926-6.7C226.64,187.458,223.7,186.01,220.68,184.9Zm-1.544-.549-.225-.085c-1.81-.683-3.309-1.412-3.309-3.424,0-1.667,1.157-2.692,3.347-2.966l.187-.023Zm1.431,11.294-.2.036v-7.488l.232.1c1.576.675,3.035,1.614,3.035,3.888A3.346,3.346,0,0,1,220.567,195.646Z" transform="translate(-212 -173.407)" fill="#a2a2a2"/>
        </g>
      </g>
    </g>
  </g>
</svg>
