<svg id="padlock" xmlns="http://www.w3.org/2000/svg" width="47.261" height="65.085" viewBox="0 0 47.261 65.085">
  <g id="Grupo_63" data-name="Grupo 63" transform="translate(17.172 35.171)">
    <g id="Grupo_62" data-name="Grupo 62" transform="translate(0)">
      <path id="Trazado_9325" data-name="Trazado 9325" d="M211.65,276.673a6.46,6.46,0,0,0-4.443,11.149v5.832a4.443,4.443,0,1,0,8.886,0v-5.832a6.46,6.46,0,0,0-4.443-11.149Zm2.285,8.884a3.078,3.078,0,0,0-.97,2.228v5.868a1.315,1.315,0,1,1-2.63,0v-5.868a3.078,3.078,0,0,0-.97-2.228,3.3,3.3,0,0,1-1.046-2.425,3.331,3.331,0,1,1,6.662,0A3.3,3.3,0,0,1,213.935,285.557Z" transform="translate(-205.191 -276.673)" fill="#a2a2a2"/>
    </g>
  </g>
  <g id="Grupo_65" data-name="Grupo 65" transform="translate(0)">
    <g id="Grupo_64" data-name="Grupo 64">
      <path id="Trazado_9326" data-name="Trazado 9326" d="M112.679,26.679h-4.692V14.247a14.246,14.246,0,1,0-28.493,0V26.679H74.8a4.7,4.7,0,0,0-4.692,4.692V60.393A4.7,4.7,0,0,0,74.8,65.085h37.877a4.7,4.7,0,0,0,4.692-4.692V31.372A4.7,4.7,0,0,0,112.679,26.679ZM82.622,14.247a11.118,11.118,0,1,1,22.237,0V26.679H82.622Zm31.621,46.147h0a1.566,1.566,0,0,1-1.564,1.564H74.8a1.566,1.566,0,0,1-1.564-1.564V31.372A1.566,1.566,0,0,1,74.8,29.808h37.877a1.566,1.566,0,0,1,1.564,1.564Z" transform="translate(-70.11)" fill="#a2a2a2"/>
    </g>
  </g>
</svg>
